
        <svg xmlns="http://www.w3.org/2000/svg" xmlns:xlink="http://www.w3.org/1999/xlink" version="1.1" width="3162.023317746102" height="960.2288423097198" viewBox="0 0 3162.023317746102 960.2288423097198">
			
			<g transform="scale(8.101165887305086) translate(10, 10)">
				<defs id="SvgjsDefs4277"/><g id="SvgjsG4278" featureKey="symbolFeature-0" transform="matrix(1.9241811524058612,0,0,1.9241811524058612,1.5545674854947844,9)" fill="#fff"><g xmlns="http://www.w3.org/2000/svg" display="none"><rect x="-69.333" y="-186.661" display="inline" width="473.333" height="236"/></g><g xmlns="http://www.w3.org/2000/svg" display="none"><g display="inline"><g><polygon points="29.17,9.123 2.83,18.247 2.83,0    "/></g><g><polygon points="2.83,22.877 29.17,13.753 29.17,32    "/></g></g></g><g xmlns="http://www.w3.org/2000/svg"><g><polygon points="2.83,18.247 29.17,9.123 2.83,0   "/><polygon points="29.17,32 29.17,13.753 2.83,22.877   "/></g></g><g xmlns="http://www.w3.org/2000/svg" display="none"><g display="inline"><path d="M3.83,1.405l22.285,7.719L3.83,16.842V1.405 M2.83,0v18.247L29.17,9.123L2.83,0L2.83,0z"/></g><g display="inline"><path d="M28.17,15.158v15.437L5.885,22.877L28.17,15.158 M29.17,13.753L2.83,22.877L29.17,32V13.753L29.17,13.753z    "/></g></g><g xmlns="http://www.w3.org/2000/svg" display="none"><g display="inline"><polygon points="3.33,0.702 27.643,9.123 3.33,17.544   "/><path d="M3.83,1.405l22.285,7.719L3.83,16.842V1.405 M2.83,0v18.247L29.17,9.123L2.83,0L2.83,0z"/></g><g display="inline"><polygon points="4.357,22.876 28.67,14.455 28.67,31.298   "/><path d="M28.17,15.158v15.437L5.885,22.877L28.17,15.158 M29.17,13.753L2.83,22.877L29.17,32V13.753L29.17,13.753z    "/></g></g></g><g id="SvgjsG4279" featureKey="nameFeature-0" transform="matrix(2.560542664988399,0,0,2.560542664988399,73.15095879009664,-28.370802765022454)" fill="#fff"><path d="M2.56 16.8 c0 0.02668 -0.18004 0.039922 -0.54004 0.039922 l-1.18 0 l-1.68 0 l2.72 -4.88 l6.72 0 l0 9.04 c0.56 -0.53332 1.2533 -1.0066 2.08 -1.42 s1.8134 -0.62 2.96 -0.62 c2.3733 0 4.14 0.66 5.3 1.98 s1.74 3.42 1.74 6.3 l0 12.76 l-6.08 0 l0 -11.96 c0 -1.04 -0.24 -1.8667 -0.72 -2.48 s-1.2133 -0.92 -2.2 -0.92 c-0.85332 0 -1.58 0.23332 -2.18 0.7 s-0.9 1.3534 -0.9 2.66 l0 12 l-6.12 0 z M31.815999999999995 18.88 c1.3867 0 2.6332 0.19324 3.7399 0.57992 s2.0334 1.0134 2.78 1.88 s1.32 1.98 1.72 3.34 s0.6 3 0.6 4.92 l0 0.62 l-0.08 1.26 l-11.2 0 l-0.84 -0.12 c0.02668 0.77332 0.11336 1.3933 0.26004 1.86 s0.36 0.83336 0.64 1.1 s0.62 0.45336 1.02 0.56004 s0.85332 0.17336 1.36 0.20004 c0.82668 0.05332 1.54 -0.06668 2.14 -0.36 s1.1667 -0.89332 1.7 -1.8 c0.82668 0.26668 1.5867 0.52 2.28 0.76 c0.58668 0.21332 1.12 0.4 1.6 0.56 s0.72 0.22668 0.72 0.2 c-0.96 2 -2.1267 3.46 -3.5 4.38 s-3.02 1.38 -4.94 1.38 c-1.4133 0 -2.6933 -0.18668 -3.84 -0.56 s-2.12 -0.98 -2.92 -1.82 s-1.42 -1.9333 -1.86 -3.28 s-0.66 -2.9934 -0.66 -4.94 c0 -1.8933 0.22 -3.5133 0.66 -4.86 s1.06 -2.4534 1.86 -3.32 s1.7733 -1.5067 2.92 -1.92 s2.4267 -0.62 3.84 -0.62 z M34.016 26.880000000000003 l0.60008 0.08 c-0.05332 -0.93332 -0.3 -1.66 -0.74 -2.18 s-1.1267 -0.78 -2.06 -0.78 c-1.0667 0 -1.8334 0.26 -2.3 0.78 s-0.75336 1.2467 -0.86004 2.18 c0.13332 -0.02668 0.25332 -0.04668 0.36 -0.06 s0.22668 -0.02 0.36 -0.02 l4.64 0 z M43.112 11.079999999999998 l6.04 0.000039062 l0 20.6 c0 0.69332 0.04 1.2533 0.12 1.68 s0.20668 0.76 0.38 1 s0.39332 0.4 0.66 0.48 s0.58668 0.12 0.96 0.12 c0.18668 0 0.4 -0.0066796 0.64 -0.02 s0.64 -0.07332 1.2 -0.18 l0.36 5 c-0.69332 0.21332 -1.34 0.34664 -1.94 0.39996 s-1.14 0.08 -1.62 0.08 c-2.1333 0 -3.8 -0.58 -5 -1.74 s-1.8 -3.0467 -1.8 -5.66 l0 -21.76 z M53.688 11.079999999999998 l6.04 0.000039062 l0 20.6 c0 0.69332 0.04 1.2533 0.12 1.68 s0.20668 0.76 0.38 1 s0.39332 0.4 0.66 0.48 s0.58668 0.12 0.96 0.12 c0.18668 0 0.4 -0.0066796 0.64 -0.02 s0.64 -0.07332 1.2 -0.18 l0.36 5 c-0.69332 0.21332 -1.34 0.34664 -1.94 0.39996 s-1.14 0.08 -1.62 0.08 c-2.1333 0 -3.8 -0.58 -5 -1.74 s-1.8 -3.0467 -1.8 -5.66 l0 -21.76 z M73.984 18.88 c1.3867 0 2.68 0.19336 3.88 0.58004 s2.2333 1.0067 3.1 1.86 s1.5467 1.96 2.04 3.32 s0.74 3 0.74 4.92 s-0.24668 3.56 -0.74 4.92 s-1.1733 2.4667 -2.04 3.32 s-1.9 1.4733 -3.1 1.86 s-2.4933 0.58 -3.88 0.58 c-1.4133 0 -2.7133 -0.19332 -3.9 -0.58 s-2.2134 -1.0067 -3.08 -1.86 s-1.5467 -1.96 -2.04 -3.32 s-0.74 -3 -0.74 -4.92 c0 -1.8933 0.24668 -3.5133 0.74 -4.86 s1.1733 -2.4534 2.04 -3.32 s1.8934 -1.5 3.08 -1.9 s2.4867 -0.6 3.9 -0.6 z M73.984 35 c1.2 0 2.14 -0.4 2.82 -1.2 s1.02 -2.2133 1.02 -4.24 s-0.34 -3.4467 -1.02 -4.26 s-1.62 -1.22 -2.82 -1.22 c-1.1733 0 -2.1133 0.42 -2.82 1.26 s-1.06 2.2467 -1.06 4.22 c0 2.0267 0.34668 3.44 1.04 4.24 s1.64 1.2 2.84 1.2 z M85.71999999999998 11.079999999999998 l6.04 0.000039062 l0 20.6 c0 0.69332 0.04 1.2533 0.12 1.68 s0.20668 0.76 0.38 1 s0.39332 0.4 0.66 0.48 s0.58668 0.12 0.96 0.12 c0.18668 0 0.4 -0.0066796 0.64 -0.02 s0.64 -0.07332 1.2 -0.18 l0.36 5 c-0.69332 0.21332 -1.34 0.34664 -1.94 0.39996 s-1.14 0.08 -1.62 0.08 c-2.1333 0 -3.8 -0.58 -5 -1.74 s-1.8 -3.0467 -1.8 -5.66 l0 -21.76 z M94.89599999999999 19.12 l6.7199 0 l3.8 15.6 l4.36 -15.6 l6.28 0 l-4.6 15.32 c-0.50668 1.68 -1.0067 3.3533 -1.5 5.02 s-0.98 3.3 -1.46 4.9 c-0.32 1.0133 -0.7 1.8533 -1.14 2.52 s-0.94668 1.2 -1.52 1.6 s-1.2066 0.68 -1.9 0.84 s-1.4533 0.24 -2.28 0.24 c-0.66668 0 -1.3934 -0.07332 -2.18 -0.22 s-1.6867 -0.38 -2.7 -0.7 l2.32 -4.32 l0.98 0.14 l0.66 0.06 c0.26668 0 0.53336 -0.02 0.80004 -0.06 s0.52668 -0.14 0.78 -0.3 s0.49332 -0.42 0.72 -0.78 s0.43336 -0.86 0.62004 -1.5 l0.28 -1.2 l0.56 -0.68 l-3.52 0 z"/></g><g id="SvgjsG4280" featureKey="sloganFeature-0" transform="matrix(0.951825752412143,0,0,0.951825752412143,91.27661243724407,77.96309278998751)" fill="#fff"><path d="M6.84 20.22 c-1.0933 0 -2.0234 -0.18666 -2.79 -0.56 s-1.3933 -0.88668 -1.88 -1.54 s-0.84332 -1.43 -1.07 -2.33 s-0.34 -1.8833 -0.34 -2.95 s0.11334 -2.05 0.34 -2.95 s0.58332 -1.6733 1.07 -2.32 s1.1133 -1.15 1.88 -1.51 s1.6967 -0.54 2.79 -0.54 s2.0234 0.18 2.79 0.54 s1.3933 0.86334 1.88 1.51 s0.84 1.42 1.06 2.32 s0.33 1.8833 0.33 2.95 s-0.11 2.05 -0.33 2.95 s-0.57334 1.6767 -1.06 2.33 s-1.1133 1.1667 -1.88 1.54 s-1.6967 0.56 -2.79 0.56 z M6.84 17.42 c0.92 0 1.5833 -0.38 1.99 -1.14 s0.61 -1.9067 0.61 -3.44 s-0.19666 -2.66 -0.59 -3.38 s-1.0567 -1.08 -1.99 -1.08 c-0.94666 0 -1.6233 0.36 -2.03 1.08 s-0.61 1.8467 -0.61 3.38 s0.20334 2.68 0.61 3.44 s1.0767 1.14 2.01 1.14 z M3.28 4.84 l0 -2.7 l2.92 0 l0 2.7 l-2.92 0 z M7.52 4.84 l0 -2.7 l2.9 0 l0 2.7 l-2.9 0 z M21.384000000000004 13.620000000000001 c-0.42666 -0.17334 -0.82332 -0.36666 -1.19 -0.58 s-0.68332 -0.47 -0.94998 -0.77 s-0.47332 -0.65334 -0.61998 -1.06 s-0.22 -0.89 -0.22 -1.45 c0 -0.69334 0.12 -1.3033 0.36 -1.83 s0.57666 -0.97 1.01 -1.33 s0.95668 -0.63334 1.57 -0.82 s1.2933 -0.28 2.04 -0.28 c0.61334 0 1.24 0.06334 1.88 0.19 s1.4067 0.34332 2.3 0.64998 l-1.36 2.44 c-0.86666 -0.41334 -1.78 -0.62 -2.74 -0.62 c-0.18666 0 -0.38 0.02 -0.58 0.06 s-0.38 0.11 -0.54 0.21 s-0.29334 0.23666 -0.4 0.41 s-0.16 0.4 -0.16 0.68 c0 0.22666 0.04334 0.41332 0.13 0.55998 s0.19666 0.27332 0.33 0.37998 s0.28668 0.19666 0.46002 0.27 s0.34668 0.14334 0.52002 0.21 l1.18 0.46 c0.50666 0.2 0.97 0.41 1.39 0.63 s0.77666 0.48666 1.07 0.8 s0.52 0.69668 0.68 1.15 s0.24 1.02 0.24 1.7 s-0.12334 1.3 -0.37 1.86 s-0.60666 1.0367 -1.08 1.43 s-1.0567 0.7 -1.75 0.92 s-1.4867 0.33 -2.38 0.33 c-0.41334 0 -0.79334 -0.01334 -1.14 -0.04 s-0.68332 -0.07332 -1.01 -0.13998 s-0.65332 -0.14666 -0.97998 -0.24 s-0.67666 -0.21334 -1.05 -0.36 l0.68 -2.8 c0.54666 0.14666 1.0833 0.27666 1.61 0.39 s1.0633 0.17 1.61 0.17 c0.73334 0 1.2933 -0.09666 1.68 -0.29 s0.61332 -0.56334 0.67998 -1.11 c0.02666 -0.28 -0.0066796 -0.51334 -0.10002 -0.7 s-0.22668 -0.34332 -0.40002 -0.46998 s-0.36668 -0.23 -0.58002 -0.31 l-0.64 -0.24 z M36.028000000000006 8.54 l-3.42 0 l0 -2.84 l10.3 0 l-0.46 1.4 l-0.46 1.44 l-2.68 0 l0.06 0.56 l0 10.9 l-3.34 0 l0 -11.46 z M48.252 5.699999999999999 l8.42 0 c-0.13334 0.50666 -0.26668 0.98666 -0.40002 1.44 s-0.26668 0.92 -0.40002 1.4 l-4.4 0 c0 0.05334 0.0066602 0.13 0.02 0.23 s0.02 0.17666 0.02 0.23 l0 2.1 l4.04 0 l0 2.86 l-4.04 0 l0 2.74 l-0.04 0.46 l5.28 0 l0 2.84 l-8.5 0 l0 -14.3 z M62.61600000000001 5.82 c0.64 -0.08 1.2266 -0.14334 1.76 -0.19 s1.1 -0.07 1.7 -0.07 c0.73334 0 1.4633 0.07 2.19 0.21 s1.3767 0.38334 1.95 0.73 s1.0367 0.81332 1.39 1.4 s0.53 1.3333 0.53 2.24 c0 0.52 -0.07 0.98666 -0.21 1.4 s-0.31334 0.77668 -0.52 1.09 s-0.43666 0.58668 -0.69 0.82002 s-0.5 0.43 -0.74 0.59 l-0.1 0.06 l0.27 0.44 l0.66 1.1 l0.85 1.42 l0.85 1.41 l0.64 1.09 l0.25 0.42 l-3.66 0 l-3.78 -6.58 l0 6.6 l-3.34 0 l0 -14.18 z M65.956 13.280000000000001 l0.7 -0.32 c0.17334 -0.08 0.38 -0.18 0.62 -0.3 s0.47334 -0.27666 0.7 -0.47 s0.42 -0.42334 0.58 -0.69 s0.24 -0.59332 0.24 -0.97998 c0 -0.41334 -0.06 -0.75668 -0.18 -1.03 s-0.28666 -0.49334 -0.5 -0.66 s-0.46334 -0.28666 -0.75 -0.36 s-0.59666 -0.11 -0.93 -0.11 l-0.23 0 l-0.25 0.02 l0 4.9 z M78.58000000000001 5.82 c0.64 -0.08 1.2266 -0.14334 1.76 -0.19 s1.1 -0.07 1.7 -0.07 c0.73334 0 1.4633 0.07 2.19 0.21 s1.3767 0.38334 1.95 0.73 s1.0367 0.81332 1.39 1.4 s0.53 1.3333 0.53 2.24 c0 0.52 -0.07 0.98666 -0.21 1.4 s-0.31334 0.77668 -0.52 1.09 s-0.43666 0.58668 -0.69 0.82002 s-0.5 0.43 -0.74 0.59 l-0.1 0.06 l0.27 0.44 l0.66 1.1 l0.85 1.42 l0.85 1.41 l0.64 1.09 l0.25 0.42 l-3.66 0 l-3.78 -6.58 l0 6.6 l-3.34 0 l0 -14.18 z M81.92000000000002 13.280000000000001 l0.7 -0.32 c0.17334 -0.08 0.38 -0.18 0.62 -0.3 s0.47334 -0.27666 0.7 -0.47 s0.42 -0.42334 0.58 -0.69 s0.24 -0.59332 0.24 -0.97998 c0 -0.41334 -0.06 -0.75668 -0.18 -1.03 s-0.28666 -0.49334 -0.5 -0.66 s-0.46334 -0.28666 -0.75 -0.36 s-0.59666 -0.11 -0.93 -0.11 l-0.23 0 l-0.25 0.02 l0 4.9 z M94.504 5.699999999999999 l8.42 0 c-0.13334 0.50666 -0.26668 0.98666 -0.40002 1.44 s-0.26668 0.92 -0.40002 1.4 l-4.4 0 c0 0.05334 0.0066602 0.13 0.02 0.23 s0.02 0.17666 0.02 0.23 l0 2.1 l4.04 0 l0 2.86 l-4.04 0 l0 2.74 l-0.04 0.46 l5.28 0 l0 2.84 l-8.5 0 l0 -14.3 z M108.78800000000001 5.699999999999999 l3.26 0 l0 14.3 l-3.26 0 l0 -14.3 z M127.952 19.66 c-0.56 0.22666 -1.0966 0.37664 -1.61 0.44998 s-1.0833 0.11 -1.71 0.11 c-1.1333 0 -2.1266 -0.18 -2.98 -0.54 s-1.5633 -0.86334 -2.13 -1.51 s-0.99332 -1.4167 -1.28 -2.31 s-0.43 -1.8733 -0.43 -2.94 s0.14666 -2.0534 0.44 -2.96 s0.72334 -1.6867 1.29 -2.34 s1.27 -1.1633 2.11 -1.53 s1.8 -0.55 2.88 -0.55 c0.62666 0 1.1933 0.06 1.7 0.18 s1 0.28666 1.48 0.5 l-0.82 2.66 c-0.26666 -0.12 -0.56332 -0.22666 -0.88998 -0.32 s-0.71666 -0.14 -1.17 -0.14 c-2.3734 0 -3.56 1.5 -3.56 4.5 c0 1.5067 0.30666 2.62 0.92 3.34 s1.56 1.08 2.84 1.08 c0.42666 0 0.80332 -0.03 1.13 -0.09 s0.65 -0.15 0.97 -0.27 z M133.696 5.699999999999999 l3.28 -0.000019531 l0 5.4 l4.26 0 l0 -5.4 l3.28 0 l0 14.3 l-3.28 0 l0 -6.1 c-0.08 0.01334 -0.15334 0.02668 -0.22 0.04002 l-0.24 0.04 l-3.36 0 l-0.44 -0.08 l0 6.1 l-3.28 0 l0 -14.3 z"/></g>
			</g>
		</svg>
	
